# xmcd
#
# Track frame offsets: 
#        150
#        13391
#        26887
#        40793
#        52184
#        63855
#        71356
#        84504
#        98004
#        112238
#        125863
#        139283
#        151044
#        163402
#        174836
#        186914
#        199297
#        211618
#        222539
#        233803
#        243680
#        257532
#        268748
#        282434
#        295749
#        308481
#
# Disc length: 4271 seconds
#
# Revision: 0
# Processed by: cddbd v1.5.2PL0 Copyright (c) Steve Scherf et al.
# Submitted via: ExactAudioCopy v0.99pb4
#
DISCID=8d10ad1a
DTITLE=Various Artist - Acadian All Star Special - Disc 2
DYEAR=2011
DGENRE=Country
TTITLE0=Austin Pete and His Evangeline Playboys - Chatatinia Waltz
TTITLE1=Austin Pete and His Evangeline Playboys - Evangeline Playboys Sp
TTITLE1=ecial
TTITLE2=Chuck Guillory and Boys - Oakdale Waltz
TTITLE3=Chuck Guillory and Boys - Walfus Two Step
TTITLE4=Chuck Guillory and Rhythm Boys - Chuck's Waltz
TTITLE5=Chuck Guillory and Rhythm Boys - Teiyut Two Step
TTITLE6=Lee Sonnier and His Acadian All Stars - War Widow Waltz
TTITLE7=Lee Sonnier and His Acadian All Stars - Cankton Two Step
TTITLE8=Austin Pete and His Evangeline Playboys - High Point Two Step
TTITLE9=Austin Pete and His Evangeline Playboys - Redell Waltz
TTITLE10=Happy and Doctor And The Hadacol Boys - La Valse De Hadacol
TTITLE11=Happy and Doctor And The Hadacol Boys - Crowley Two Step
TTITLE12=Amidie Breaux and The Acadian Aces - Jole Blonde
TTITLE13=Amidie Breaux and The Acadian Aces - Acadian Two Step
TTITLE14=Amidie Breaux and The Acadian Aces - Criminal Waltz
TTITLE15=Amidie Breaux and The Acadian Aces - Poor Hobo
TTITLE16=Aldus Roger and Lafayette Playboys - The Lafayette Playboys Wal
TTITLE16=tz
TTITLE17=Aldus Roger and Lafayette Playboys - Hix Wagon Wheel Special
TTITLE18=Cleveland Mire and The Jolly Boys - Prison Waltz
TTITLE19=Cleveland Mire and The Jolly Boys - Hudson Breakdown
TTITLE20=Lionel Cormier and His Sundown Playboys - Welcome Club Waltz
TTITLE21=Lionel Cormier and His Sundown Playboys - Sundown Playboys Spec
TTITLE21=ial
TTITLE22=Louis Spell and His French Serenaders - The Fifty Cent Song
TTITLE23=Louis Spell and His French Serenaders - Lover's Waltz
TTITLE24=Lee Sonnier and His Acadian All Stars - Along The River
TTITLE25=Lee Sonnier and His Acadian All Stars - Acadian All Star Specia
TTITLE25=l
EXTD=
EXTT0=
EXTT1=
EXTT2=
EXTT3=
EXTT4=
EXTT5=
EXTT6=
EXTT7=
EXTT8=
EXTT9=
EXTT10=
EXTT11=
EXTT12=
EXTT13=
EXTT14=
EXTT15=
EXTT16=
EXTT17=
EXTT18=
EXTT19=
EXTT20=
EXTT21=
EXTT22=
EXTT23=
EXTT24=
EXTT25=
PLAYORDER=
